<svg preserveAspectRatio="none" overflow="visible" style="display: block;" width="32" height="32" viewBox="0 0 32 32" fill="none" xmlns="http://www.w3.org/2000/svg">
<g id="Frame">
<path id="Vector" d="M29 16C28.9959 19.1773 27.8302 22.2434 25.7224 24.6208C23.6145 26.9982 20.7101 28.5228 17.5562 28.9075C17.486 28.9155 17.4149 28.9084 17.3476 28.8869C17.2803 28.8653 17.2183 28.8298 17.1657 28.7825C17.1132 28.7353 17.0712 28.6774 17.0427 28.6128C17.0141 28.5481 16.9996 28.4782 17 28.4075V19H20C20.1371 19.0003 20.2728 18.9724 20.3986 18.9181C20.5245 18.8637 20.6378 18.7841 20.7316 18.6841C20.8254 18.5841 20.8976 18.4659 20.9438 18.3368C20.9899 18.2077 21.0091 18.0705 21 17.9338C20.9779 17.6766 20.8593 17.4374 20.668 17.2641C20.4766 17.0909 20.2268 16.9965 19.9687 17H17V14C17 13.4696 17.2107 12.9609 17.5858 12.5858C17.9609 12.2107 18.4696 12 19 12H21C21.1371 12.0003 21.2728 11.9724 21.3986 11.9181C21.5245 11.8637 21.6378 11.7841 21.7316 11.6841C21.8254 11.5841 21.8976 11.4659 21.9438 11.3368C21.9899 11.2077 22.0091 11.0705 22 10.9338C21.9779 10.6762 21.8589 10.4366 21.667 10.2633C21.4752 10.09 21.2247 9.99589 20.9662 10H19C17.9391 10 16.9217 10.4214 16.1716 11.1716C15.4214 11.9217 15 12.9391 15 14V17H12C11.8629 16.9997 11.7272 17.0276 11.6014 17.0819C11.4755 17.1363 11.3622 17.2159 11.2684 17.3159C11.1746 17.4159 11.1024 17.5341 11.0562 17.6632C11.0101 17.7923 10.9909 17.9295 11 18.0663C11.0221 18.3238 11.1411 18.5634 11.333 18.7367C11.5248 18.91 11.7753 19.0041 12.0337 19H15V28.41C15.0004 28.4806 14.9859 28.5504 14.9574 28.615C14.9289 28.6795 14.8871 28.7373 14.8347 28.7845C14.7823 28.8317 14.7204 28.8673 14.6533 28.889C14.5861 28.9106 14.5151 28.9178 14.445 28.91C11.2067 28.5156 8.23445 26.9199 6.11659 24.4386C3.99873 21.9573 2.8896 18.7713 3.00875 15.5112C3.25875 8.76125 8.72625 3.27375 15.4812 3.01125C17.2301 2.94351 18.9747 3.22919 20.6106 3.85121C22.2465 4.47322 23.7401 5.4188 25.0022 6.63137C26.2642 7.84394 27.2688 9.2986 27.9557 10.9083C28.6426 12.5181 28.9978 14.2498 29 16Z" fill="white"/>
</g>
</svg>
